<svg xmlns="http://www.w3.org/2000/svg" version="1.1" xmlns:xlink="http://www.w3.org/1999/xlink" xmlns:svgjs="http://svgjs.dev/svgjs" width="308.7612359841165" height="304.915625" viewBox="0 0 2000 2250"><g transform="matrix(1,0,0,1,0,0)"><svg viewBox="0 0 320 360" data-background-color="#010536" preserveAspectRatio="xMidYMid meet" height="2250" width="2000" xmlns="http://www.w3.org/2000/svg" xmlns:xlink="http://www.w3.org/1999/xlink"><g id="tight-bounds" transform="matrix(1,0,0,1,0,0)"><svg viewBox="0 0 320 360" height="360" width="320"><g><svg></svg></g><g><svg viewBox="0 0 320 360" height="360" width="320"><g><path xmlns="http://www.w3.org/2000/svg" d="M165.217 303.356c-1.404-1.755-2.809-0.702-2.808-1.755-8.426 2.106-24.223-3.511-30.894-2.809 1.404-2.106-2.106-1.755-2.106-3.159-1.404 2.106-2.809 0-4.915 0.702-2.106-5.266-10.532-1.404-11.585-8.075-4.915 0-6.67-2.809-11.586-5.617 0.351-0.351 0.702-0.351 1.054-0.702-2.457-0.351-2.457-1.755-4.564-1.755l0.702-1.405c-3.862-0.702-5.266-6.67-10.883-8.776-1.755-0.351-5.617-6.319-7.723-7.724-1.053-0.702-2.809-0.702-0.352-1.053-0.351-0.351-0.351-1.053 0-1.404-2.457-0.702-2.809-2.809-5.968-3.862-0.351-1.053 0.702-1.755 0-2.457-0.702-0.351-1.755 0.351-2.457 0-0.351 6.319 6.67 7.021 8.777 12.287-0.702-0.702-1.755-2.809-2.458-1.404-0.351 1.053 2.809 4.915 2.809 2.808-1.053 0.702-1.404-1.053-0.703-1.404 1.053 1.755 3.16 1.404 3.16 2.809-1.053 1.053-2.457-1.053-2.106 0.702 3.16 1.755 2.809 3.511 4.563 5.968-1.404-1.755-1.755 1.404-3.159 0-0.351-5.266-6.319-4.213-6.319-9.479-0.702-1.755-1.404-0.351-2.458-1.053 1.404-1.404-4.213-6.319-4.213-4.564-1.755-2.106-0.702-2.809-1.053-4.213-1.404-0.351-0.351 1.404-1.404 0.351 1.404-2.457-1.755-5.617-3.862-8.074l1.405-0.702c-2.457-1.404-2.809-4.213-4.564-7.373-2.106 3.16 4.213 10.181 3.159 11.585 0 0.351 2.457 3.16 3.16 4.564 2.809 4.915 4.915 10.883 8.777 13.692-0.702-0.351-0.351-2.457 0.702-1.404 0 1.053-0.702 2.106-0.702 3.159 2.106 2.106 3.862 3.862 5.968 5.968-4.564-2.809-9.128-5.617-12.288-9.83 1.755-0.351 3.511 2.809 4.915 2.458-3.511-2.809-2.457-3.862-3.861-7.372-1.404-1.053 0.351 1.404-1.054 1.755-4.564-4.213-8.075-6.67-10.181-10.532 0.351-0.351 0.702-0.702 0.703-1.404-0.351-0.351-0.351-0.351-0.703-0.702 2.106 2.106 2.809 3.862 5.266 4.212-1.053-1.053 0-1.404-1.404-2.457-0.702-1.404-1.755 0.702-2.457-0.351 0.702-1.053 0-2.457 0-3.511-0.702 0-1.404 0-1.756-1.053-0.702-0.351-1.053 0-1.404 0.702-0.351-0.351-0.351-1.053-0.702-1.404v-0.351c-0.351-0.351-0.702-1.053-1.053-1.405-2.809-7.372-4.564-17.202-8.426-23.521 1.053-4.213-0.702-12.638-1.755-14.745 1.053-1.755 0.351-9.83-0.351-11.234-1.755 0.702 0.351 4.564-1.404 5.617-1.755-7.723 1.053-16.5 0.351-23.521 0.702 0 1.404 0 1.404-0.351-1.053-1.053 0.702-3.16 0.351-5.617 1.404-3.16-3.16 4.564-3.16 7.723-0.351 0.702-1.755 0-1.404 1.756 0 2.457 0.702 7.372-0.702 10.883-0.702 0-0.702-0.702-1.404-0.351-0.351 1.755-0.702 3.862-1.053 5.617-0.351-0.702-0.702-1.755-0.703-2.107-1.755-8.777 0-18.958-0.702-26.33 1.404 0 1.404-2.106 2.458-2.808-0.351 2.809-1.053 6.319 0.702 7.021 1.404-13.692 4.213-28.787 10.532-43.532 4.564-10.883 11.234-21.766 19.308-30.543 0.702 1.053-0.351 3.511 0 4.564 7.021-7.372 11.585-16.149 19.309-21.064 0.351 1.755-3.16 3.16-3.16 4.564 3.16-3.16 4.213-2.106 7.724-3.159 1.053-1.404-1.404 0-1.756-1.405 2.106-1.404 3.511-3.16 4.915-4.212 0 0.351-0.351 0.351-0.351 0.702 3.862-1.053 4.213-3.16 7.022-3.862-0.351-0.351-1.053-0.702-2.107-0.351 0.702-0.351 1.755-1.053 2.809-1.404-0.351 0-0.351 0.351-0.702 0.351 2.106-1.053 0.351 0.351 0.351 1.053 0.351 0 0.702-0.351 0.702-0.351-2.106 1.404-3.511 2.106-4.213 4.564 1.053-0.702 1.404 0 2.809-1.054 1.404-0.702-0.351-1.755 0.702-2.457 1.053 0.702 2.457 0.351 3.51 0.351 0-0.702 0.351-1.404 1.054-1.755 0.351-0.702 0-1.053-0.352-1.053 0.351-0.351 0.702-0.351 1.405-0.703 0 0 0.351 0 0.351 0.351 5.968-2.809 12.638-5.266 18.957-7.372 3.862-0.351 8.777-0.351 10.883-2.808-0.702 0-1.404 0.351-1.755 0 0.351 0 1.053-0.351 1.404-0.351 0.702 0.702 1.755 0 0.702 1.404 0.351 0 0.351 0 0.703-0.351 0 0.351 0 0.351 0.351 0.702 0.351 0 0.702-0.351 1.053-1.053 0.351 0 0.702 0 1.053-0.351l-0.351 0.351c2.809-0.702 5.266-0.351 9.128-1.054 0-0.351 0-0.702 0-1.053 0.702 0 1.053-0.351 1.755-0.351v0.351c1.404-0.702 2.809 0.702 2.808 0 0.351 0 0.351 0 0.703 0 0 0.702-0.351 1.053-0.351 1.405 1.755 0 2.809 0 3.51-1.054-0.351-0.351-0.702-0.351-1.053-0.351 0.702 0 1.404-0.351 2.106-0.702 1.053 0.351 1.404 0.702 1.405 2.107 1.755-3.16 7.372 0.702 9.829 0 1.053 0 0.702-1.404 1.405-2.107 0.351 0 0.702 0 1.053 0 1.755 1.404 4.213 2.809 7.372 3.16-2.809-0.702 0.351-1.053 0.702-1.405-0.702 0-0.702-0.351-0.702-0.702 1.053 0 2.106 0.351 3.16 0.351 0 0.702 0.351 1.053 1.053 1.054 0.702 0 0.702-0.351 0.702-1.054 1.053 0 1.755 0 2.809 0.351-0.351 1.404 1.755 1.755 2.457 2.809-2.809-0.702-5.968-1.755-7.021 0 11.234 2.457 23.521 5.968 35.457 11.936 0 0 0 0 0 0.351h0.352c2.106 1.053 4.213 2.106 6.319 3.16 1.404 0.702 2.457 1.404 3.861 2.457 0 0.351 0 0.702 0.703 0.702h0.351c1.404 1.053 2.809 1.755 4.212 2.809 1.404 2.106 2.809 4.915 5.266 4.213 5.266 8.075 10.883 11.234 15.447 19.659 0.351-1.404 1.404 3.16 3.16 3.511-2.809-0.351 1.755 1.755-1.053 1.404 2.457 2.457 3.16 3.511 3.51 6.319-0.702-1.404-1.053-1.755-1.404-0.351-0.351 2.106 2.457-0.351 3.511 1.756-2.106 0-1.404 1.404-1.054 3.159 1.053-1.053 0.702-2.106 1.756-1.755 1.404 1.404-0.702 1.755-0.351 2.809 1.053-1.404 1.404-0.702 2.808 0-1.755 0.351 1.053 2.809-1.053 1.755 1.404 1.755 1.755 2.809 1.053 4.564-1.404-2.106-0.351-3.511-2.457-3.16 4.213 3.511 2.106 11.585 7.021 12.287-3.16 0.702 0 2.106-1.755 2.458 2.106 0.702 1.053 3.511 3.51 4.213-0.351 1.755-1.053 2.809-1.404 4.563 1.053 1.404 1.404 4.213 3.16 4.564-1.053 1.053-0.351 3.862-1.404 4.915 1.404-0.702 2.106-0.702 3.159 0.702-1.755 1.404-0.351 2.809-1.404 3.16 3.16 8.075-0.702 24.575 1.053 30.894-2.106-1.053-1.404 2.457-2.808 2.457 2.457 1.053 0.351 2.809 1.404 4.564-4.915 2.809 0 10.532-6.67 12.287 0.702 4.915-2.106 7.021-4.213 12.288-0.351-0.351-0.351-0.702-0.702-1.054-0.351 2.457-1.755 2.809-1.054 4.915l-1.404-0.702c0 3.862-5.968 5.968-7.372 11.936-0.351 1.755-5.617 6.319-7.022 8.777-0.702 1.053-0.351 2.809-1.053 0.351-0.351 0.351-1.053 0.351-1.404 0.351-0.351 2.457-2.457 3.16-3.16 6.319-0.702 0.351-1.755-0.702-2.457 0.351 0 0.702 0.702 1.755 0.351 2.458 6.319-0.351 6.319-7.723 11.234-10.181-0.351 1.053-2.457 2.106-1.053 2.808 1.053 0 4.213-3.511 2.457-3.159 1.053 0.702-1.053 1.404-1.404 1.053 1.755-1.404 1.053-3.16 2.458-3.511 1.053 0.702-1.053 2.457 1.053 2.107 1.404-3.16 3.16-3.511 5.266-5.266-1.404 1.404 1.755 1.755 0.351 3.159-5.266 1.053-3.511 7.021-8.777 7.724-1.404 1.053-0.351 1.404-0.702 2.457-1.755-1.053-5.617 4.915-4.213 4.564-1.755 1.755-2.809 1.053-4.212 1.404-0.351 1.404 1.404 0.351 0.702 1.405-2.457-1.053-5.617 2.457-7.724 4.915l-1.053-1.054c-1.053 2.809-3.862 3.16-7.021 5.266 3.511 1.755 9.479-5.617 11.234-4.564 0.351 0 3.16-2.809 4.213-3.861 4.564-3.511 10.181-6.319 12.287-10.181-0.351 0.702-2.457 0.702-1.404-0.351 1.053-0.351 2.106 0.351 3.159 0.351 5.617-7.723 12.638-14.043 17.905-23.17 0.351-0.351 0.702-1.053 1.053-1.756-0.702 2.106-1.755 3.862-2.458 5.968-5.617 3.862-7.723 15.096-14.393 16.851 0.351 3.862-3.16 4.915-4.915 9.479-1.053 1.404-1.755-1.053-2.809 0.702 1.053 4.915-8.777 4.564-8.425 9.128-0.702 0.351-1.755 0.702-2.458 1.404h-0.351c-0.351 0.351-0.351 0.351-0.702 0.702-1.755 1.053-3.16 2.106-4.564 3.16-4.915 2.809-11.585 4.915-16.851 7.723v-0.351c-1.404 0.702-3.16 0.351-2.809 1.756-1.053 0.702-2.106 1.404-3.159 2.106-0.351 0-0.351 0-0.702 0 0 0-0.351-0.351-0.702-0.351-0.702 0-0.702 0-1.054 0.351-4.564 0.351-10.532 2.457-12.287 3.862-1.755-1.053-9.83 0.702-11.234 1.404 0.702 1.053 2.809 0 4.564 0-1.053 0.351-2.106 0.702-2.458 1.404-0.351 0-0.351 0-0.702 0-0.351-1.053-1.404 0-1.755-0.351h0.351c-0.351-1.404-1.404-2.106-3.16-1.755 0 0.702 0 1.053-0.351 1.755 0.702 0 2.809-1.053 2.809 0-0.351 0-0.351 0.351 0 0.351-0.702 0.702-1.755 0.702-2.458 1.054-1.404 0-3.16 0-4.563 0-0.351-0.351-0.702-0.351-1.405-0.703-0.351 0.351-1.053 0.351-1.404 0.703-2.106 0-4.564 0.351-6.319 0.702 0-0.702 0-1.404-0.702-1.405-1.053 1.404-3.16-0.351-5.617 0.352-2.457-0.702 1.404 1.053 4.915 1.755-0.351 0.351-0.702 0.702-1.756 1.053M116.068 308.271c-4.915-4.564-15.096-6.67-16.851-10.181-2.809-0.351-7.021-5.617-10.532-6.319 1.755 0 0.351-1.053 0-1.755-0.702 0.702-1.404 1.053-2.106 1.053 0-2.809-2.809-4.564-5.266-6.319 1.755 1.053 3.16 1.755 5.266 2.106 0-0.702 0-1.404 0.702-1.404 2.457 2.457 5.266 4.915 8.425 7.372 4.213 3.862 25.979 13.692 29.841 15.447 0 0-0.702 1.404-0.351 1.404 1.755 1.053 3.16-1.053 3.511 1.404-5.617 0.702-7.723-3.16-12.639-2.808M277.909 226.824v0.351 0c-0.351 0 0-0.351 0-0.351M136.079 64.281c-0.351 0.351-0.702 0.351-0.702 0.351 0-0.351 0.351-0.351 0.702-0.351M129.409 66.036c0 0.351 0 0.351 0 0 0 0.351 0 0.351 0 0 0 0.351 0 0 0 0M106.238 73.408v0c0.351-0.351 0.351-0.351 0.703-0.351-0.351 0-0.702 0.351-0.703 0.351M162.409 61.823c-0.702 0-1.053 0-1.404-0.351 0.351 0 0.702 0 1.053 0h0.351c0 0 0 0 0 0.351M168.728 62.525c-0.351-0.351-1.404-0.702-2.457-0.702 0-0.351 0.351-0.702 0.351-0.702 0.351 0 0.702 0 1.053 0 0 0 0.351 0 0.351 0.351 0 0 0 0 0-0.351 0.351 0 0.351 0 0.702 0 0.351 0.702 0.702 1.053 0 1.404M180.313 63.579c-1.755 0.351-2.809-0.351-4.564-1.405 1.053 0 2.457 0.351 3.511 0.702 0.351 0 0.702 0.351 1.053 0.703M305.292 113.43c-0.702 0.351-1.053 0.351-1.755-1.053-5.617-11.936-15.798-29.138-30.543-43.532-14.394-14.745-33.702-26.681-51.255-33.001 1.053 0.351 2.457 1.053 1.755 1.756-15.447-5.968-30.192-9.479-44.234-10.883-37.915-5.968-77.585 2.106-108.128 21.766 0.351 0.702 0.351 1.053-0.702 1.755-11.234 7.021-27.032 19.309-39.671 35.458-12.638 16.149-22.468 36.511-26.681 54.766 0.351-1.053 0.702-2.809 1.405-2.107-9.128 36.16-6.67 67.053 5.968 93.735 0.702-0.702-1.755-4.213 0.351-3.862 1.404 3.862 3.16 8.075 5.266 11.936 2.457 5.617 5.266 12.989 9.128 14.745-9.83-19.309-16.5-41.426-17.203-61.085 1.404 2.809 1.053 8.777 3.16 11.234 0.702-13.34-2.457-31.245 2.106-43.883-1.053 6.67-1.755 15.798-1.053 24.925 0 6.67 3.16 25.277 5.266 27.032-0.351-0.351-0.351-2.106 0-2.106 1.053 2.106-1.404 3.16 0.351 3.511 0-0.702 0.351-0.702 0.702-0.703 3.511 7.723 8.075 19.66 11.585 25.628 4.213 7.723 9.83 14.745 16.149 21.064 0 0.351 0.351 0.351 0.352 0.702 0.702 1.755 3.16 3.862 3.861 5.266 0.351 0.702-0.351 1.755 0 2.458 5.266 9.83 12.989 19.66 22.468 27.383 5.968 7.021 15.447 14.394 27.032 20.713 11.234 5.968 24.223 10.883 36.16 13.691 8.426 2.106 18.606 2.457 24.926 3.862 8.426 1.755 23.17-0.702 30.542-2.107 44.234-6.67 88.117-36.862 110.235-80.393 22.819-43.883 22.117-97.596 2.457-138.671" fill="#ffffff" fill-rule="nonzero" stroke="none" stroke-width="1" stroke-linecap="butt" stroke-linejoin="miter" stroke-miterlimit="10" stroke-dasharray="" stroke-dashoffset="0" font-family="none" font-weight="none" font-size="none" text-anchor="none" style="mix-blend-mode: normal" data-fill-palette-color="tertiary"></path></g><g transform="matrix(1,0,0,1,101.28447822869376,108)"><svg viewBox="0 0 117.43104354261249 144" height="144" width="117.43104354261249"><g><svg viewBox="0 0 117.43104354261249 144" height="144" width="117.43104354261249"><g><svg viewBox="0 0 160 196.2002491414412" height="144" width="117.43104354261249"><g transform="matrix(1,0,0,1,0,118.89411193320338)"><svg viewBox="0 0 160 77.30613720823783" height="77.30613720823783" width="160"><g id="textblocktransform"><svg viewBox="0 0 160 77.30613720823783" height="77.30613720823783" width="160" id="textblock"><g><svg viewBox="0 0 160 51.07266435986159" height="51.07266435986159" width="160"><g transform="matrix(1,0,0,1,0,0)"><svg width="160" viewBox="0 -35.15999984741211 112.87999725341797 36.040000915527344" height="51.07266435986159" data-palette-color="#fbfbf8"><path d="M35.94 0L35.94 0 32.23 0.34Q29.54-16.5 26.42-28.52L26.42-28.52Q24.8-24.71 22.88-17.8 20.95-10.89 20.21-8.84L20.21-8.84Q20.12-8.84 19.9-8.81 19.68-8.79 19.53-8.79L19.53-8.79Q18.85-8.79 17.29-8.94 15.72-9.08 15.28-9.08L15.28-9.08Q15.23-10.5 12.79-18.53 10.35-26.56 9.86-28.81L9.86-28.81Q8.98-20.9 3.03 0L3.03 0 0-0.29Q0.68-5.62 3.37-17.04 6.05-28.47 6.54-34.72L6.54-34.72Q7.42-34.81 7.96-34.81L7.96-34.81Q8.45-34.81 11.57-34.42L11.57-34.42Q12.26-34.33 13.55-30 14.84-25.68 16.16-20.51 17.48-15.33 17.82-14.4L17.82-14.4Q19.19-17.77 21.12-25.34 23.05-32.91 23.83-34.96L23.83-34.96Q24.61-34.91 28.76-34.52L28.76-34.52Q30.03-29.59 31.23-23.88 32.42-18.16 33.81-10.89 35.21-3.61 35.94 0ZM39.69-21.09L39.69-21.09 38.72-23.58Q39.99-24.85 41.94-25.61 43.89-26.37 45.8-26.37L45.8-26.37Q54.05-26.37 54.05-12.11L54.05-12.11Q54.05-10.16 53.83-6.35 53.61-2.54 53.61-0.63L53.61-0.63Q53.22 0.88 52.1 0.88L52.1 0.88Q51.22 0.88 50.49 0 49.75-0.88 49.75-1.95L49.75-1.95Q49.75-2.29 49.8-2.44L49.8-2.44Q46.77 0.49 43.36 0.49L43.36 0.49Q40.77 0.49 38.84-1.39 36.91-3.27 36.91-5.96L36.91-5.96Q36.91-10.5 40.45-14.16 43.99-17.82 48.48-17.82L48.48-17.82Q48.68-17.82 48.87-17.8 49.07-17.77 49.34-17.72 49.61-17.68 49.75-17.68L49.75-17.68Q49.36-23.39 45.21-23.39L45.21-23.39Q42.77-23.39 39.69-21.09ZM49.9-5.81L49.9-5.81Q50-9.23 50-10.99L50-10.99Q50-12.45 49.9-15.09L49.9-15.09 49.51-15.09Q46.04-15.04 43.19-12.5 40.33-9.96 40.33-6.35L40.33-6.35Q40.33-4.79 41.28-3.86 42.23-2.93 43.6-2.93L43.6-2.93Q45.75-2.93 49.9-5.81ZM58.25-35.16L58.25-35.16 60.79-34.57Q60.93-32.57 61.01-28.17 61.08-23.78 61.18-22.12L61.18-22.12Q63.81-24.9 67.52-24.9L67.52-24.9Q70.84-24.9 73.26-22.56 75.68-20.21 75.68-16.31L75.68-16.31 75.68-0.24Q75.04 0.05 74.07 0.05L74.07 0.05Q72.99 0.05 72.11-0.15L72.11-0.15Q72.11-0.54 72.14-1.34 72.16-2.15 72.16-2.54L72.16-2.54Q72.16-4.44 72.02-9.11 71.87-13.77 71.87-16.89L71.87-16.89Q71.14-21.39 67.33-21.39L67.33-21.39Q65.67-21.39 64.06-20.48 62.45-19.58 61.71-18.36L61.71-18.36Q61.86-15.28 61.91-9.08 61.96-2.88 62.06-0.15L62.06-0.15Q60.88 0.05 60.05 0.05L60.05 0.05Q58.83 0.05 58-0.24L58-0.24Q58.1-2.64 58.1-7.81L58.1-7.81Q58.1-10.11 58.05-16.24 58-22.36 58.03-26.78 58.05-31.2 58.25-35.16ZM80.75-25.1L80.75-25.1 83-24.61Q83.39-20.61 83.68-12.04 83.98-3.47 84.07-1.42L84.07-1.42Q83.64 0.1 82.37 0.1L82.37 0.1Q81.49 0.1 80.68-0.61 79.88-1.32 79.68-2.34L79.68-2.34Q79.78-4.35 80.07-12.77 80.36-21.19 80.75-25.1ZM81.44-33.84L81.44-33.84Q82.76-33.84 83.64-32.69 84.51-31.54 84.51-30.08L84.51-30.08Q84.51-29 84-28.34 83.49-27.69 82.61-27.69L82.61-27.69Q81.24-27.69 80.46-28.81 79.68-29.93 79.68-31.45L79.68-31.45Q79.68-32.52 80.14-33.18 80.61-33.84 81.44-33.84ZM101.85-19.34L101.85-19.34Q102.04-16.6 102.14-12.87 102.24-9.13 102.31-5.32 102.38-1.51 102.43-0.15L102.43-0.15Q101.36 0.15 100.43 0.15L100.43 0.15Q99.7 0.15 99.06-0.1L99.06-0.1Q98.92-2 98.87-4.44 98.82-6.88 98.82-8.76 98.82-10.64 98.74-12.7 98.67-14.75 98.48-16.21 98.28-17.68 97.89-18.92 97.5-20.17 96.79-20.85 96.08-21.53 95.06-21.58L95.06-21.58Q94.03-21.58 93.4-21.14 92.76-20.7 92.03-19.53L92.03-19.53 92.03-0.2Q91.3 0.2 90.27 0.2L90.27 0.2Q89.49 0.2 88.52-0.05L88.52-0.05Q88.66-3.13 88.71-12.16 88.76-21.19 89.1-25.54L89.1-25.54 91.3-25.05 91.45-22.56Q92.91-24.85 95.16-24.85L95.16-24.85Q98.48-24.85 100.77-21.92L100.77-21.92Q102.19-24.85 105.36-24.85L105.36-24.85Q106.63-24.85 107.56-24.56L107.56-24.56Q112.88-23.05 112.88-10.94L112.88-10.94Q112.88-9.18 112.76-6.23 112.64-3.27 112.64-2.25L112.64-2.25Q112.64-0.88 112.78 0L112.78 0Q110.24 0.68 109.71 0.68L109.71 0.68Q109.22 0.68 109.02 0.59L109.02 0.59Q108.83-0.05 108.83-1.76L108.83-1.76Q108.83-2.83 108.97-6.18 109.12-9.52 109.12-11.43L109.12-11.43Q109.12-21.58 105.12-21.68L105.12-21.68Q104.19-21.63 103.51-21.12 102.82-20.61 101.85-19.34Z" opacity="1" transform="matrix(1,0,0,1,0,0)" fill="#ffffff" class="wordmark-text-0" data-fill-palette-color="primary" id="text-0"></path></svg></g></svg></g><g transform="matrix(1,0,0,1,0,63.12969467128028)"><svg viewBox="0 0 160 14.176442536957559" height="14.176442536957559" width="160"><g transform="matrix(1,0,0,1,0,0)"><svg width="160" viewBox="-0.30000001192092896 -36.95000076293945 524.2099609375 46.45000076293945" height="14.176442536957559" data-palette-color="#fbfbf8"><path d="M18.7-33.6Q21.5-33.6 23.88-32.93 26.25-32.25 28.7-30.8L28.7-30.8 29.85-31.75Q31.05-32.7 31.83-33.05 32.6-33.4 33.6-33.4L33.6-33.4Q34.8-33.4 35.5-32.88 36.2-32.35 36.2-31.35L36.2-31.35Q36.2-30.95 36.05-30.5L36.05-30.5 33.95-23.6Q33.6-22.4 33.08-21.9 32.55-21.4 31.5-21.4L31.5-21.4Q30.4-21.4 29.58-22.08 28.75-22.75 27-24.85L27-24.85Q25.25-26.85 23.83-27.68 22.4-28.5 20.9-28.5L20.9-28.5Q19.8-28.5 19.05-27.78 18.3-27.05 18.3-26L18.3-26Q18.3-24.8 19.5-23.78 20.7-22.75 23.25-21.2L23.25-21.2Q25.85-19.65 27.55-18.4 29.25-17.15 30.45-15.3 31.65-13.45 31.65-11.05L31.65-11.05Q31.65-9.5 31.15-7.95L31.15-7.95Q29.95-3.95 26.5-1.88 23.05 0.2 18.45 0.2L18.45 0.2Q15 0.2 12.65-0.6 10.3-1.4 7.85-3.3L7.85-3.3 6.05-1.8Q4.8-0.75 4-0.38 3.2 0 2.2 0L2.2 0Q1.05 0 0.38-0.55-0.3-1.1-0.3-2.05L-0.3-2.05Q-0.3-2.55-0.1-3.1L-0.1-3.1 2.35-10.55Q2.75-11.85 3.45-12.4 4.15-12.95 5.25-12.95L5.25-12.95Q6.4-12.95 7.33-12.15 8.25-11.35 9.75-9.25L9.75-9.25Q11.35-6.95 12.73-6.05 14.1-5.15 16-5.15L16-5.15Q17.35-5.15 18.07-5.58 18.8-6 19.1-6.95L19.1-6.95Q19.2-7.2 19.2-7.7L19.2-7.7Q19.2-8.9 18.05-9.9 16.9-10.9 14.5-12.3L14.5-12.3Q11.95-13.85 10.35-15.08 8.75-16.3 7.58-18.15 6.4-20 6.4-22.5L6.4-22.5Q6.4-24.25 6.95-25.95L6.95-25.95Q8-29.4 11.25-31.5 14.5-33.6 18.7-33.6L18.7-33.6ZM53.8-26.45Q60.6-26.45 63.82-23.7 67.05-20.95 67.05-16.5L67.05-16.5Q67.05-15 66.65-13.15L66.65-13.15Q65.7-9.05 63.1-5.98 60.5-2.9 56.72-1.23 52.95 0.45 48.55 0.45L48.55 0.45Q41.6 0.45 38.27-2.33 34.95-5.1 34.95-9.7L34.95-9.7Q34.95-11.25 35.35-13.15L35.35-13.15Q36.3-17.05 38.97-20.08 41.65-23.1 45.52-24.78 49.4-26.45 53.8-26.45L53.8-26.45ZM53.65-22Q52.6-22 51.42-20.13 50.25-18.25 48.65-13.05L48.65-13.05Q47.05-7.85 47.05-5.75L47.05-5.75Q47.05-4.65 47.4-4.28 47.75-3.9 48.35-3.9L48.35-3.9Q49.4-3.8 50.52-5.7 51.65-7.6 53.35-13.1L53.35-13.1Q54.9-17.95 54.9-20.15L54.9-20.15Q54.9-21.2 54.57-21.6 54.25-22 53.65-22L53.65-22ZM87.65-36.95Q93-36.95 95.67-35.33 98.34-33.7 98.34-31.35L98.34-31.35Q98.34-29.45 96.77-28.43 95.2-27.4 92.65-27.4L92.65-27.4Q90.3-27.4 89-28.55 87.7-29.7 87.7-31.4L87.7-31.4Q87.7-32.45 88.34-33.6L88.34-33.6Q86.84-33.6 85.84-32.88 84.84-32.15 84.3-30.4L84.3-30.4Q84-29.3 84-28.35L84-28.35Q84-27.15 84.42-26.48 84.84-25.8 85.65-25.8L85.65-25.8 88.59-25.8Q91.2-25.8 91.2-24.2L91.2-24.2Q91.2-24 91.09-23.6L91.09-23.6Q90.8-22.5 89.87-21.95 88.95-21.4 87.09-21.4L87.09-21.4 85.59-21.4 80.65-5.2Q80.5-4.6 80.5-4.15L80.5-4.15Q80.5-3.5 80.75-3.13 81-2.75 81.45-2.4L81.45-2.4Q81.8-2.05 81.95-1.83 82.09-1.6 82-1.25L82-1.25Q81.75-0.6 81-0.3 80.25 0 78.7 0L78.7 0 67.3 0Q66 0 65.4-0.43 64.8-0.85 65-1.55L65-1.55Q65.2-2.15 66.05-2.6L66.05-2.6Q66.8-3 67.3-3.55 67.8-4.1 68.15-5.3L68.15-5.3 72.05-18.1Q72.3-18.85 72.3-19.65L72.3-19.65Q72.3-20.65 71.87-21.23 71.45-21.8 70.59-22.5L70.59-22.5Q70.05-22.95 69.77-23.28 69.5-23.6 69.5-24.05L69.5-24.05Q69.45-25 70.17-25.4 70.9-25.8 72.95-25.8L72.95-25.8 74.2-25.8Q73.84-27.05 73.84-28.3L73.84-28.3Q73.84-29.55 74.3-30.9L74.3-30.9Q75.25-33.45 78.37-35.2 81.5-36.95 87.65-36.95L87.65-36.95ZM110.89-25.8Q111.84-25.8 112.37-25.4 112.89-25 112.89-24.3L112.89-24.3Q112.89-24.1 112.79-23.6L112.79-23.6Q112.14-21.4 109.79-21.4L109.79-21.4 106.89-21.4 103.14-9.05Q102.89-8.3 102.89-7.5L102.89-7.5Q102.89-6.6 103.39-6.25 103.89-5.9 104.79-5.9L104.79-5.9Q105.59-5.9 106.79-6.1L106.79-6.1Q107.39-6.25 107.84-6.25L107.84-6.25Q108.19-6.25 108.37-6.03 108.54-5.8 108.54-5.45L108.54-5.45Q108.59-4.45 107.07-3.03 105.54-1.6 102.94-0.58 100.34 0.45 97.19 0.45L97.19 0.45Q93.79 0.45 91.74-1.1 89.69-2.65 89.69-5.35L89.69-5.35Q89.69-6.6 90.09-7.75L90.09-7.75 93.29-17.65Q93.54-18.5 93.54-19L93.54-19Q93.54-20 93.07-20.7 92.59-21.4 91.74-22.15L91.74-22.15Q90.99-22.85 90.69-23.33 90.39-23.8 90.54-24.45L90.54-24.45Q90.74-25.1 91.39-25.45 92.04-25.8 93.44-25.8L93.44-25.8 96.24-25.8 99.39-28.95Q101.04-30.6 102.42-31.25 103.79-31.9 105.99-31.9L105.99-31.9Q109.14-31.9 109.14-29.5L109.14-29.5Q109.14-28.75 108.94-28.1L108.94-28.1 108.24-25.8 110.89-25.8ZM156.99-19.35Q156.99-14.9 153.89-10.25 150.79-5.6 146.06-2.58 141.34 0.45 136.79 0.45L136.79 0.45Q133.19 0.45 130.69-0.8 128.19-2.05 127.44-4.4L127.44-4.4Q125.59-2.15 123.34-1 121.09 0.15 118.64 0.15L118.64 0.15Q115.24 0.15 113.12-1.53 110.99-3.2 110.99-6.45L110.99-6.45Q110.99-8.15 111.54-9.95L111.54-9.95 114.34-19.75Q114.44-20.15 114.44-20.35L114.44-20.35Q114.44-20.85 114.19-21.2 113.94-21.55 113.49-21.95L113.49-21.95Q112.74-22.6 112.74-23.1L112.74-23.1Q112.69-23.8 113.59-24.6 114.49-25.4 116.12-25.93 117.74-26.45 119.79-26.45L119.79-26.45Q123.14-26.45 125.02-24.83 126.89-23.2 126.89-20.6L126.89-20.6Q126.89-19.45 126.49-18.1L126.49-18.1 123.94-9.6Q123.74-8.9 123.74-8.65L123.74-8.65Q123.74-8 124.12-7.65 124.49-7.3 125.14-7.3L125.14-7.3Q126.04-7.3 126.67-7.93 127.29-8.55 127.89-9.95L127.89-9.95 130.74-19.75Q130.84-20.15 130.84-20.35L130.84-20.35Q130.84-20.85 130.59-21.2 130.34-21.55 129.89-21.95L129.89-21.95Q129.14-22.6 129.14-23.1L129.14-23.1Q129.09-23.8 129.99-24.6 130.89-25.4 132.52-25.93 134.14-26.45 136.19-26.45L136.19-26.45Q139.59-26.45 141.44-24.85 143.29-23.25 143.29-20.6L143.29-20.6Q143.29-19.55 142.89-18.1L142.89-18.1 139.64-7.4Q139.54-7.15 139.54-6.65L139.54-6.65Q139.54-6 139.99-5.65 140.44-5.3 141.24-5.3L141.24-5.3Q142.34-5.3 143.81-6.28 145.29-7.25 146.72-9.08 148.14-10.9 149.04-13.4L149.04-13.4Q147.04-15.15 146.22-16.85 145.39-18.55 145.39-20.35L145.39-20.35Q145.39-22.9 146.79-24.68 148.19-26.45 150.84-26.45L150.84-26.45Q153.49-26.45 155.24-24.55 156.99-22.65 156.99-19.35L156.99-19.35ZM174.24-26.45Q179.99-26.45 183.44-24.33 186.89-22.2 186.89-17.85L186.89-17.85Q186.89-16.2 186.29-14.1L186.29-14.1 184.24-7.2Q184.19-7 184.19-6.7L184.19-6.7Q184.19-5.9 184.84-5.9L184.84-5.9Q185.44-5.9 185.86-6.43 186.29-6.95 186.44-6.95L186.44-6.95Q186.69-6.95 186.86-6.6 187.04-6.25 187.04-5.8L187.04-5.8Q187.09-4.45 186.01-3.05 184.94-1.65 183.14-0.75 181.34 0.15 179.19 0.15L179.19 0.15Q176.59 0.15 174.74-0.8 172.89-1.75 172.19-3.6L172.19-3.6Q170.69-1.8 168.64-0.83 166.59 0.15 164.24 0.15L164.24 0.15Q161.59 0.15 159.79-0.88 157.99-1.9 157.11-3.53 156.24-5.15 156.24-6.95L156.24-6.95Q156.24-7.75 156.39-8.5L156.39-8.5Q157.19-11.95 159.86-13.7 162.54-15.45 166.24-15.45L166.24-15.45Q170.39-15.45 174.39-14.15L174.39-14.15 175.64-17.45Q176.29-19.55 176.29-20.7L176.29-20.7Q176.24-21.9 175.49-22.5 174.74-23.1 173.19-23.1L173.19-23.1Q173.49-22.3 173.49-21.45L173.49-21.45Q173.49-19.6 172.09-18.25 170.69-16.9 168.09-16.9L168.09-16.9Q165.64-16.9 164.26-17.98 162.89-19.05 162.89-20.65L162.89-20.65Q162.89-23.15 165.69-24.8 168.49-26.45 174.24-26.45L174.24-26.45ZM171.44-11.3Q170.04-11.3 169.16-10.23 168.29-9.15 168.29-7.9L168.29-7.9Q168.29-7.1 168.66-6.6 169.04-6.1 169.74-6.1L169.74-6.1Q170.39-6.1 171.16-6.63 171.94-7.15 172.29-8.2L172.29-8.2 173.34-11.15Q172.49-11.3 171.44-11.3L171.44-11.3ZM213.64-26.45Q216.44-26.45 218.11-24.75 219.79-23.05 219.79-20.55L219.79-20.55Q219.79-19.6 219.59-18.8L219.59-18.8Q219.09-16.75 217.69-15.65 216.29-14.55 214.34-14.55L214.34-14.55Q212.44-14.55 211.46-15.45 210.49-16.35 209.74-17.85L209.74-17.85Q209.34-18.7 208.99-19.1 208.64-19.5 208.19-19.5L208.19-19.5Q207.69-19.5 207.31-19.1 206.94-18.7 206.64-17.7L206.64-17.7 202.79-5.2Q202.69-4.95 202.69-4.45L202.69-4.45Q202.69-3.8 203.06-3.38 203.44-2.95 204.09-2.55L204.09-2.55Q204.69-2.15 204.89-1.9 205.09-1.65 205.04-1.25L205.04-1.25Q204.94-0.6 204.31-0.3 203.69 0 202.19 0L202.19 0 189.39 0Q188.09 0 187.51-0.43 186.94-0.85 187.09-1.55L187.09-1.55Q187.29-2.15 188.14-2.6L188.14-2.6Q188.89-3 189.39-3.55 189.89-4.1 190.24-5.3L190.24-5.3 194.69-19.75Q194.79-20 194.79-20.45L194.79-20.45Q194.79-21 194.56-21.3 194.34-21.6 193.84-22.05L193.84-22.05Q193.34-22.45 193.14-22.75 192.94-23.05 193.09-23.55L193.09-23.55Q193.39-24.7 196.24-25.58 199.09-26.45 202.19-26.45L202.19-26.45Q204.24-26.45 205.59-25.53 206.94-24.6 207.34-22.9L207.34-22.9Q209.74-26.45 213.64-26.45L213.64-26.45ZM234.98-26.7Q241.33-26.7 244.18-24.68 247.03-22.65 247.03-19.5L247.03-19.5Q247.03-18.55 246.83-17.75L246.83-17.75Q246.08-14.45 242.66-13.03 239.23-11.6 234.58-11.6L234.58-11.6Q232.23-11.6 230.18-11.9L230.18-11.9Q230.13-9.3 231.58-8.25 233.03-7.2 235.63-7.2L235.63-7.2Q236.83-7.2 237.93-7.48 239.03-7.75 240.73-8.3L240.73-8.3Q242.13-8.8 242.63-8.8L242.63-8.8Q243.18-8.8 243.18-8.15L243.18-8.15Q243.23-6.4 241.88-4.48 240.53-2.55 237.88-1.2 235.23 0.15 231.48 0.15L231.48 0.15Q225.93 0.15 222.38-2.65 218.83-5.45 218.83-10.8L218.83-10.8Q218.83-12.3 219.23-14.3L219.23-14.3Q220.48-20.45 224.71-23.58 228.93-26.7 234.98-26.7L234.98-26.7ZM230.53-14.9Q230.73-14.85 231.08-14.85L231.08-14.85Q233.18-14.85 234.28-16.8 235.38-18.75 235.33-21.15L235.33-21.15Q235.28-22.55 234.53-22.55L234.53-22.55Q233.98-22.55 233.23-21.68 232.48-20.8 231.76-19.05 231.03-17.3 230.53-14.9L230.53-14.9ZM279.98-33.3Q287.48-33.3 291.28-30.43 295.08-27.55 295.08-22L295.08-22Q295.08-19.25 294.08-15.65L294.08-15.65Q292.43-9.85 289.63-6.45 286.83-3.05 282.25-1.5 277.68 0.05 270.53 0L270.53 0 256.93-0.05Q255.88-0.05 255.3-0.4 254.73-0.75 254.73-1.35L254.73-1.35Q254.73-1.65 254.88-2L254.88-2Q255.03-2.45 255.3-2.65 255.58-2.85 256.13-3.2L256.13-3.2Q256.93-3.65 257.4-4.2 257.88-4.75 258.23-5.95L258.23-5.95 264.33-27.45Q264.53-28.1 264.53-28.7L264.53-28.7Q264.53-29.25 264.35-29.63 264.18-30 263.88-30.5L263.88-30.5Q263.43-31.15 263.43-31.55L263.43-31.55Q263.43-31.7 263.53-32.1L263.53-32.1Q263.73-32.75 264.4-33.02 265.08-33.3 266.48-33.3L266.48-33.3 279.98-33.3ZM281.28-16.75Q282.58-21.45 282.58-24.15L282.58-24.15Q282.58-26.8 281.48-27.8 280.38-28.8 278.33-28.8L278.33-28.8 277.23-28.8 270.48-4.5 271.68-4.5Q273.98-4.5 275.55-5.48 277.13-6.45 278.48-9.08 279.83-11.7 281.28-16.75L281.28-16.75ZM311.58-26.7Q317.93-26.7 320.78-24.68 323.63-22.65 323.63-19.5L323.63-19.5Q323.63-18.55 323.43-17.75L323.43-17.75Q322.68-14.45 319.25-13.03 315.83-11.6 311.18-11.6L311.18-11.6Q308.83-11.6 306.78-11.9L306.78-11.9Q306.73-9.3 308.18-8.25 309.63-7.2 312.23-7.2L312.23-7.2Q313.43-7.2 314.53-7.48 315.63-7.75 317.33-8.3L317.33-8.3Q318.73-8.8 319.23-8.8L319.23-8.8Q319.78-8.8 319.78-8.15L319.78-8.15Q319.83-6.4 318.48-4.48 317.13-2.55 314.48-1.2 311.83 0.15 308.08 0.15L308.08 0.15Q302.53 0.15 298.98-2.65 295.43-5.45 295.43-10.8L295.43-10.8Q295.43-12.3 295.83-14.3L295.83-14.3Q297.08-20.45 301.3-23.58 305.53-26.7 311.58-26.7L311.58-26.7ZM307.13-14.9Q307.33-14.85 307.68-14.85L307.68-14.85Q309.78-14.85 310.88-16.8 311.98-18.75 311.93-21.15L311.93-21.15Q311.88-22.55 311.13-22.55L311.13-22.55Q310.58-22.55 309.83-21.68 309.08-20.8 308.35-19.05 307.63-17.3 307.13-14.9L307.13-14.9ZM347.02-26.45Q349.67-26.45 351.42-24.55 353.17-22.65 353.17-19.35L353.17-19.35Q353.17-14.9 350.07-10.25 346.97-5.6 342.22-2.58 337.47 0.45 332.97 0.45L332.97 0.45Q328.67 0.45 326-1.3 323.32-3.05 323.32-6.3L323.32-6.3Q323.32-7.5 323.77-9L323.77-9 326.92-19.75Q327.02-20.15 327.02-20.35L327.02-20.35Q327.02-20.85 326.77-21.2 326.52-21.55 326.07-21.95L326.07-21.95Q325.32-22.6 325.32-23.1L325.32-23.1Q325.27-23.8 326.17-24.6 327.07-25.4 328.7-25.93 330.32-26.45 332.37-26.45L332.37-26.45Q335.72-26.45 337.6-24.83 339.47-23.2 339.47-20.6L339.47-20.6Q339.47-19.45 339.07-18.1L339.07-18.1 335.82-7.4Q335.67-6.95 335.67-6.65L335.67-6.65Q335.67-6 336.12-5.65 336.57-5.3 337.37-5.3L337.37-5.3Q338.47-5.3 339.95-6.28 341.42-7.25 342.87-9.08 344.32-10.9 345.22-13.4L345.22-13.4Q343.22-15.15 342.4-16.85 341.57-18.55 341.57-20.35L341.57-20.35Q341.57-22.9 342.97-24.68 344.37-26.45 347.02-26.45L347.02-26.45ZM369.52-26.7Q375.87-26.7 378.72-24.68 381.57-22.65 381.57-19.5L381.57-19.5Q381.57-18.55 381.37-17.75L381.37-17.75Q380.62-14.45 377.2-13.03 373.77-11.6 369.12-11.6L369.12-11.6Q366.77-11.6 364.72-11.9L364.72-11.9Q364.67-9.3 366.12-8.25 367.57-7.2 370.17-7.2L370.17-7.2Q371.37-7.2 372.47-7.48 373.57-7.75 375.27-8.3L375.27-8.3Q376.67-8.8 377.17-8.8L377.17-8.8Q377.72-8.8 377.72-8.15L377.72-8.15Q377.77-6.4 376.42-4.48 375.07-2.55 372.42-1.2 369.77 0.15 366.02 0.15L366.02 0.15Q360.47 0.15 356.92-2.65 353.37-5.45 353.37-10.8L353.37-10.8Q353.37-12.3 353.77-14.3L353.77-14.3Q355.02-20.45 359.25-23.58 363.47-26.7 369.52-26.7L369.52-26.7ZM365.07-14.9Q365.27-14.85 365.62-14.85L365.62-14.85Q367.72-14.85 368.82-16.8 369.92-18.75 369.87-21.15L369.87-21.15Q369.82-22.55 369.07-22.55L369.07-22.55Q368.52-22.55 367.77-21.68 367.02-20.8 366.3-19.05 365.57-17.3 365.07-14.9L365.07-14.9ZM396.52-36.95Q399.42-36.95 400.79-35.85 402.17-34.75 402.17-32.85L402.17-32.85Q402.17-31.75 401.82-30.7L401.82-30.7 393.97-5.2Q393.82-4.6 393.82-4.15L393.82-4.15Q393.82-3.5 394.07-3.13 394.32-2.75 394.77-2.4L394.77-2.4Q395.12-2.05 395.27-1.83 395.42-1.6 395.32-1.25L395.32-1.25Q395.07-0.6 394.32-0.3 393.57 0 392.02 0L392.02 0 380.62 0Q379.32 0 378.72-0.43 378.12-0.85 378.32-1.55L378.32-1.55Q378.52-2.15 379.37-2.6L379.37-2.6Q380.12-3 380.62-3.55 381.12-4.1 381.47-5.3L381.47-5.3 389.07-30.25Q389.22-30.7 389.22-31L389.22-31Q389.22-31.55 388.94-31.9 388.67-32.25 388.22-32.6L388.22-32.6Q387.72-33 387.49-33.3 387.27-33.6 387.42-34.1L387.42-34.1Q387.72-35.25 390.57-36.1 393.42-36.95 396.52-36.95L396.52-36.95ZM418.22-26.45Q425.02-26.45 428.24-23.7 431.47-20.95 431.47-16.5L431.47-16.5Q431.47-15 431.07-13.15L431.07-13.15Q430.12-9.05 427.52-5.98 424.92-2.9 421.14-1.23 417.37 0.45 412.97 0.45L412.97 0.45Q406.02 0.45 402.69-2.33 399.37-5.1 399.37-9.7L399.37-9.7Q399.37-11.25 399.77-13.15L399.77-13.15Q400.72-17.05 403.39-20.08 406.07-23.1 409.94-24.78 413.82-26.45 418.22-26.45L418.22-26.45ZM418.07-22Q417.02-22 415.84-20.13 414.67-18.25 413.07-13.05L413.07-13.05Q411.47-7.85 411.47-5.75L411.47-5.75Q411.47-4.65 411.82-4.28 412.17-3.9 412.77-3.9L412.77-3.9Q413.82-3.8 414.94-5.7 416.07-7.6 417.77-13.1L417.77-13.1Q419.32-17.95 419.32-20.15L419.32-20.15Q419.32-21.2 418.99-21.6 418.67-22 418.07-22L418.07-22ZM456.81-26.65Q460.66-26.65 462.86-24.1 465.06-21.55 465.06-17.15L465.06-17.15Q465.06-14.8 464.41-12.2L464.41-12.2Q462.91-6 458.81-2.78 454.71 0.45 449.31 0.45L449.31 0.45Q445.86 0.45 443.31-1L443.31-1 441.71 4.35Q441.51 4.9 441.51 5.4L441.51 5.4Q441.51 5.95 441.76 6.33 442.01 6.7 442.41 7.05L442.41 7.05Q442.81 7.45 442.94 7.7 443.06 7.95 442.96 8.3L442.96 8.3Q442.76 8.95 442.01 9.22 441.26 9.5 439.71 9.5L439.71 9.5 428.26 9.5Q426.96 9.5 426.39 9.08 425.81 8.65 426.06 8L426.06 8Q426.16 7.6 426.41 7.35 426.66 7.1 427.11 6.9L427.11 6.9Q427.86 6.4 428.31 5.88 428.76 5.35 429.11 4.2L429.11 4.2 436.41-19.75Q436.56-20.2 436.56-20.5L436.56-20.5Q436.56-21.05 436.31-21.38 436.06-21.7 435.56-22.05L435.56-22.05Q435.06-22.45 434.86-22.75 434.66-23.05 434.81-23.55L434.81-23.55Q435.11-24.7 437.96-25.58 440.81-26.45 443.91-26.45L443.91-26.45Q446.11-26.45 447.54-25.35 448.96-24.25 449.16-22.3L449.16-22.3Q452.56-26.65 456.81-26.65L456.81-26.65ZM451.01-11.8Q452.21-16.25 452.21-17.95L452.21-17.95Q452.21-19 451.89-19.33 451.56-19.65 450.96-19.65L450.96-19.65Q450.51-19.65 449.81-19.23 449.11-18.8 448.41-17.8L448.41-17.8 444.46-4.7Q445.06-4.1 445.91-4.1L445.91-4.1Q447.26-4.1 448.49-5.63 449.71-7.15 451.01-11.8L451.01-11.8ZM482.16-26.7Q488.51-26.7 491.36-24.68 494.21-22.65 494.21-19.5L494.21-19.5Q494.21-18.55 494.01-17.75L494.01-17.75Q493.26-14.45 489.84-13.03 486.41-11.6 481.76-11.6L481.76-11.6Q479.41-11.6 477.36-11.9L477.36-11.9Q477.31-9.3 478.76-8.25 480.21-7.2 482.81-7.2L482.81-7.2Q484.01-7.2 485.11-7.48 486.21-7.75 487.91-8.3L487.91-8.3Q489.31-8.8 489.81-8.8L489.81-8.8Q490.36-8.8 490.36-8.15L490.36-8.15Q490.41-6.4 489.06-4.48 487.71-2.55 485.06-1.2 482.41 0.15 478.66 0.15L478.66 0.15Q473.11 0.15 469.56-2.65 466.01-5.45 466.01-10.8L466.01-10.8Q466.01-12.3 466.41-14.3L466.41-14.3Q467.66-20.45 471.89-23.58 476.11-26.7 482.16-26.7L482.16-26.7ZM477.71-14.9Q477.91-14.85 478.26-14.85L478.26-14.85Q480.36-14.85 481.46-16.8 482.56-18.75 482.51-21.15L482.51-21.15Q482.46-22.55 481.71-22.55L481.71-22.55Q481.16-22.55 480.41-21.68 479.66-20.8 478.94-19.05 478.21-17.3 477.71-14.9L477.71-14.9ZM517.76-26.45Q520.56-26.45 522.23-24.75 523.91-23.05 523.91-20.55L523.91-20.55Q523.91-19.6 523.71-18.8L523.71-18.8Q523.21-16.75 521.81-15.65 520.41-14.55 518.46-14.55L518.46-14.55Q516.56-14.55 515.58-15.45 514.61-16.35 513.86-17.85L513.86-17.85Q513.46-18.7 513.11-19.1 512.76-19.5 512.31-19.5L512.31-19.5Q511.81-19.5 511.43-19.1 511.06-18.7 510.76-17.7L510.76-17.7 506.91-5.2Q506.81-4.95 506.81-4.45L506.81-4.45Q506.81-3.8 507.18-3.38 507.56-2.95 508.21-2.55L508.21-2.55Q508.81-2.15 509.01-1.9 509.21-1.65 509.16-1.25L509.16-1.25Q509.06-0.6 508.43-0.3 507.81 0 506.31 0L506.31 0 493.51 0Q492.21 0 491.63-0.43 491.06-0.85 491.21-1.55L491.21-1.55Q491.41-2.15 492.26-2.6L492.26-2.6Q493.01-3 493.51-3.55 494.01-4.1 494.36-5.3L494.36-5.3 498.81-19.75Q498.91-20 498.91-20.45L498.91-20.45Q498.91-21 498.68-21.3 498.46-21.6 497.96-22.05L497.96-22.05Q497.46-22.45 497.26-22.75 497.06-23.05 497.21-23.55L497.21-23.55Q497.51-24.7 500.36-25.58 503.21-26.45 506.31-26.45L506.31-26.45Q508.36-26.45 509.71-25.53 511.06-24.6 511.46-22.9L511.46-22.9Q513.86-26.45 517.76-26.45L517.76-26.45Z" opacity="1" transform="matrix(1,0,0,1,0,0)" fill="#ffffff" class="slogan-text-1" data-fill-palette-color="secondary" id="text-1"></path></svg></g></svg></g></svg></g></svg></g><g transform="matrix(1,0,0,1,33.78873067539343,0)"><svg viewBox="0 0 92.42253864921314 106.83708162178469" height="106.83708162178469" width="92.42253864921314"><g><svg xmlns="http://www.w3.org/2000/svg" xmlns:xlink="http://www.w3.org/1999/xlink" version="1.1" x="0" y="0" viewBox="17.299999237060547 12.199999809265137 65.39999389648438 75.60000610351562" style="enable-background:new 0 0 100 100;" xml:space="preserve" height="106.83708162178469" width="92.42253864921314" class="icon-icon-0" data-fill-palette-color="accent" id="icon-0"><path d="M50 12.2L17.3 31.1v37.8L50 87.8l32.7-18.9V31.1L50 12.2zM32.1 37.4L50 16l17 21.4H32.1zM67.3 39.4L50 70.4l-18.2-31H67.3zM48.1 71l-27.7-4.5 9.8-25.9L48.1 71zM68.9 40.7l10.7 25.9-27.7 4.5L68.9 40.7zM69.2 37.1L52.6 16l27 15.6L69.2 37.1zM29.8 37.1l-9.4-5.5 26.8-15.5L29.8 37.1zM28.8 38.8l-9.5 25V33.3L28.8 38.8zM49 73.2v11.7L20.9 68.7 49 73.2zM51 73.2l28.1-4.5L51 84.9V73.2zM70.3 38.8l10.5-5.6v30.9L70.3 38.8z" fill="#ffffff" data-fill-palette-color="accent"></path></svg></g></svg></g><g></g></svg></g></svg></g></svg></g></svg></g><defs></defs></svg><rect width="320" height="360" fill="none" stroke="none" visibility="hidden"></rect></g></svg></g></svg>